<?xml version="1.0" encoding="UTF-8"?>
<svg width="274px" height="48px" viewBox="0 0 274 48" version="1.1" xmlns="http://www.w3.org/2000/svg" xmlns:xlink="http://www.w3.org/1999/xlink">
    <!-- Generator: Sketch 53.2 (72643) - https://sketchapp.com -->
    <title>checked.</title>
    <desc>Created with Sketch.</desc>
    <g id="Page-1" stroke="none" stroke-width="1" fill="none" fill-rule="evenodd">
        <g id="Desktop-HD-Copy" transform="translate(-182.000000, -153.000000)" fill-rule="nonzero">
            <g id="checked." transform="translate(181.984000, 153.664000)">
                <path d="M16.96,22.528 C12.928,22.528 9.664,25.344 9.664,30.464 C9.664,35.52 13.056,38.336 17.088,38.336 C20.864,38.336 22.976,35.968 23.68,33.6 L32.256,36.224 C30.848,41.792 25.6,47.296 17.088,47.296 C7.616,47.296 -7.10542736e-14,40.32 -7.10542736e-14,30.464 C-7.10542736e-14,20.544 7.424,13.568 16.768,13.568 C25.536,13.568 30.656,18.944 32.064,24.64 L23.36,27.264 C22.656,24.832 20.736,22.528 16.96,22.528 Z M47.936,27.648 L47.936,46.336 L38.208,46.336 L38.208,1.42108547e-14 L47.936,1.42108547e-14 L47.936,16.576 C49.92,14.592 53.248,13.696 56.064,13.696 C64.384,13.696 68.096,19.392 68.096,26.368 L68.096,46.336 L58.368,46.336 L58.368,28.032 C58.368,24.896 56.704,22.528 53.184,22.528 C50.112,22.528 48.128,24.704 47.936,27.648 Z M83.648,26.624 L96.384,26.624 C96.256,24.192 94.592,21.248 89.984,21.248 C85.888,21.248 83.84,24.256 83.648,26.624 Z M97.088,34.88 L105.216,37.184 C103.68,42.688 98.624,47.296 90.56,47.296 C81.792,47.296 73.984,41.024 73.984,30.336 C73.984,20.096 81.6,13.568 89.856,13.568 C99.712,13.568 105.792,19.648 105.792,29.888 C105.792,31.232 105.664,32.704 105.6,32.896 L83.456,32.896 C83.648,36.48 86.912,39.04 90.688,39.04 C94.208,39.04 96.192,37.376 97.088,34.88 Z M126.72,22.528 C122.688,22.528 119.424,25.344 119.424,30.464 C119.424,35.52 122.816,38.336 126.848,38.336 C130.624,38.336 132.736,35.968 133.44,33.6 L142.016,36.224 C140.608,41.792 135.36,47.296 126.848,47.296 C117.376,47.296 109.76,40.32 109.76,30.464 C109.76,20.544 117.184,13.568 126.528,13.568 C135.296,13.568 140.416,18.944 141.824,24.64 L133.12,27.264 C132.416,24.832 130.496,22.528 126.72,22.528 Z M179.968,14.528 L167.552,27.904 L180.224,46.336 L168.32,46.336 L160.832,35.136 L157.696,38.528 L157.696,46.336 L147.968,46.336 L147.968,1.42108547e-14 L157.696,1.42108547e-14 L157.696,25.216 L167.36,14.528 L179.968,14.528 Z M192.192,26.624 L204.928,26.624 C204.8,24.192 203.136,21.248 198.528,21.248 C194.432,21.248 192.384,24.256 192.192,26.624 Z M205.632,34.88 L213.76,37.184 C212.224,42.688 207.168,47.296 199.104,47.296 C190.336,47.296 182.528,41.024 182.528,30.336 C182.528,20.096 190.144,13.568 198.4,13.568 C208.256,13.568 214.336,19.648 214.336,29.888 C214.336,31.232 214.208,32.704 214.144,32.896 L192,32.896 C192.192,36.48 195.456,39.04 199.232,39.04 C202.752,39.04 204.736,37.376 205.632,34.88 Z M251.904,1.42108547e-14 L251.904,40.64 C251.904,43.52 252.096,45.632 252.16,46.336 L242.816,46.336 C242.752,45.952 242.56,44.544 242.56,43.264 C241.088,45.44 237.888,47.04 234.048,47.04 C225.088,47.04 218.304,40.128 218.304,30.336 C218.304,20.864 224.704,13.76 233.728,13.76 C239.168,13.76 241.536,15.808 242.304,17.024 L242.304,1.42108547e-14 L251.904,1.42108547e-14 Z M228.096,30.4 C228.096,35.648 231.488,38.336 235.264,38.336 C239.04,38.336 242.432,35.648 242.432,30.4 C242.432,25.088 239.04,22.528 235.264,22.528 C231.488,22.528 228.096,25.088 228.096,30.4 Z" id="checked" fill="#0D0C35"></path>
                <path d="M260.288,40.32 C260.288,36.736 263.232,33.792 266.816,33.792 C270.4,33.792 273.408,36.736 273.408,40.32 C273.408,43.84 270.4,46.912 266.816,46.912 C263.232,46.912 260.288,43.84 260.288,40.32 Z" id="." fill="#09F3E7"></path>
            </g>
        </g>
    </g>
</svg>